# xmcd
#
# Track frame offsets:
#	150
#	13664
#	25095
#	37675
#	50865
#	63332
#	74939
#	86983
#	100235
#	113235
#	122319
#	135011
#	147454
#	159804
#	172744
#	184490
#	196095
#	207585
#
# Disc length: 2917 seconds
#
# Revision: 0
# Processed by: cddbd v1.5.2PL0 Copyright (c) Steve Scherf et al.
# Submitted via: dBpowerAMP V4.0
#
DISCID=f80b6312
DTITLE=Marty Robbins - The Early Years
DYEAR=2004
DGENRE=Country
TTITLE0=A Castle In The Sky
TTITLE1=After You Leave
TTITLE2=Don't Make Me Ashamed
TTITLE3=Sing Me Something Sentimental
TTITLE4=Your Heart's Turn To Break
TTITLE5=Love Me Or Leave Me Alone
TTITLE6=I'll Go On Alone
TTITLE7=Blessed Jesus Should I Fall
TTITLE8=Kneel and Let The Lord Take Your Hand
TTITLE9=It's A Long Long Ride
TTITLE10=I Wish Somebody Loves Me
TTITLE11=I Couldn't Keep From Crying
TTITLE12=Tomorrow You'll Be Gone
TTITLE13=You're Breaking My Heart
TTITLE14=Crying 'Cause I Love You
TTITLE15=Pretty Words
TTITLE16=A Halfway Chance With You
TTITLE17=At The End Of A Long Lonely Day
EXTD=
EXTT0=
EXTT1=
EXTT2=
EXTT3=
EXTT4=
EXTT5=
EXTT6=
EXTT7=
EXTT8=
EXTT9=
EXTT10=
EXTT11=
EXTT12=
EXTT13=
EXTT14=
EXTT15=
EXTT16=
EXTT17=
PLAYORDER=
